# xmcd CD database file
# Copyright (C) 1993-1998 Ti Kan
#
# Track frame offsets:
#	150
#	9955
#	25582
#	40062
#	52472
#	64925
#	76097
#	86860
#	96132
#	112297
#	123812
#	135435
#	145300
#	159807
#	168762
#	180872
#	190592
#	201072
#	214960
#	224935
#	228895
#	240185
#	249662
#	255800
#	265645
#	271032
#
# Disc length: 3703 seconds
#
# Revision: 1
# Processed by: cddbd v1.4b41PL1 Copyright (c) Steve Scherf et al.
# Submitted via: CDValet v3.31 - Copyright (c) 1997 Greg Leichner
#
DISCID=540e751a
DTITLE=Marvin and Johnny - Flipped Out
DYEAR=1900
DGENRE=
TTITLE0=Wine Woogie
TTITLE1=Old Man's Blues
TTITLE2=Dream Girl
TTITLE3=As Long As You're Satisfied
TTITLE4=My Baby Won't Let Me In
TTITLE5=Sun Was Shining
TTITLE6=Baby Doll
TTITLE7=I'm Not A Fool
TTITLE8=Jo Jo
TTITLE9=Honey (Take 3)
TTITLE10=Honey (Take 4)
TTITLE11=How Long She Been Gone
TTITLE12=If I Should Lose You
TTITLE13=Boy Loves Girl
TTITLE14=School Of Love
TTITLE15=I Want Lovin'
TTITLE16=Day In-Day Out
TTITLE17=What's The Matter aka Hey Baby
TTITLE18=Flip
TTITLE19=Hunter Hancock Radion Ad
TTITLE20=Mamo Mamo
TTITLE21=Ding Dong Baby
TTITLE22=Tell Me Darling
TTITLE23=Yak Yak Woman
TTITLE24=Pretty One
TTITLE25=Bye Bye My Baby
EXTD=
EXTT0=
EXTT1=
EXTT2=
EXTT3=
EXTT4=
EXTT5=
EXTT6=
EXTT7=
EXTT8=
EXTT9=
EXTT10=
EXTT11=
EXTT12=
EXTT13=
EXTT14=
EXTT15=
EXTT16=
EXTT17=
EXTT18=
EXTT19=
EXTT20=
EXTT21=
EXTT22=
EXTT23=
EXTT24=
EXTT25=
PLAYORDER=
